# xmcd
#
# Track frame offsets:
#	150
#	11797
#	30998
#	58574
#	72889
#	88783
#	121150
#	139255
#	169025
#
# Disc length: 2443 seconds
#
# Revision: 0
# Processed by: cddbd v1.5.2PL0 Copyright (c) Steve Scherf et al.
# Submitted via: EasyCDDAExtractor 2011.0.0.0
#
DISCID=71098909
DTITLE=Roy&the Devil`s Motorcycle - Tell it to the People
DYEAR=2012
DGENRE=
TTITLE0=six pink cadillac
TTITLE1=i`m allright
TTITLE2=casey jones
TTITLE3=cristina
TTITLE4=tears on my pillow
TTITLE5=will the circle be unbroken
TTITLE6=water air food love
TTITLE7=piggy bank
TTITLE8=henrys blues
EXTD=
EXTT0=
EXTT1=
EXTT2=
EXTT3=
EXTT4=
EXTT5=
EXTT6=
EXTT7=
EXTT8=
PLAYORDER=
